<?xml version="1.0" encoding="UTF-8"?>
<svg id="Layer_2" data-name="Layer 2" xmlns="http://www.w3.org/2000/svg" viewBox="0 0 767.09 361.45">
  <g id="Layer_1-2" data-name="Layer 1">
    <g>
      <path d="M411.39,259.87c-6.73.38-32.21-4.08-38.76-6.04l-59.98-17.95c3.06-14.55,5.58-28.63,9.84-43.08,6.75-22.89,15-46.38,17.89-72.54,8.69,3.44,13.48,11.28,15.07,20.04,2.7-1.72,1.71-4.53,1.86-6.86.41-6.54-3.05-11.2-9.37-14.36,9.11-1.67,15.97,3.23,22.57,9.03-1.4-11.52-11.57-17.43-23.33-15.66-.81-2.14,18.78-6.61,17.13-6.45,3.73-.36,7.66,2.1,11.96,1.32-3.94-4.98-10.8-7.61-17.19-7.54-6.93.07-13.17,3.44-17.43,9.79-1.52-8.36.4-15.36-.3-23.59-2.74,5.52-.58,15.6-3.89,22.67-3.73-6.43-9.18-10.36-15.5-11.39-6.83-1.11-13.69.66-19.33,5.51,9.42-1.22,19.5.55,27.2,7.73-11.36-1.57-20.85,2.74-23.61,13.3,7.42-5.44,16.03-8.68,25.73-6.49-4.73,1.71-8.81,3.07-11.05,6.61-2.75,4.34-3.91,9.05-1.85,14.87,2.76-8.25,8.1-16.17,17.79-18.53,2.12,10.58-26.14,66.27-30.02,71.63l-11.78,16.31-3.03-7.7c.15-.19.09-.4-.25-.63-4.53-11.52-36.67-131.27-32.86-149.39,10.15,4.03,13.8,15.13,20.98,19.77l2.41,1.56c-.54-.35,1.42,11.9,2.76,14.31,5.02-8,4.35-18.05-.45-26.2-4.48-7.61-12.73-11.54-22.08-12.03,11.17-1.82,21.57.25,31.45,4.92.96.45,2.36-.32,3.06-.19-.72-.13,10.03,10.3,12.99,11.02-3.42-20.42-23.31-30.89-42.55-24.18,4.17-3.21,8.45-5.11,13.25-7.64,5.75-3.02,20.83-1.63,16.95-6.54,2.26-.42,3.42,2.06,5.39,2.29l17.12,2.01c-10.08-11.56-25.87-15.55-39.87-11.34-8.59,2.59-14.54,7.82-19.57,15.81l-.74-34.07-5.39,33.09c-4.47-8.78-10.12-15.16-18.98-18.61-13.48-5.25-28.92-2.83-40.41,7.28,6.31-.98,12-.64,18.39-.43,1.2.04,2.39-1.27,3.67-.97.77.18,1.01,2,2,2.39,8.61,3.38,18.32,5.2,24.49,13.46-18.32-6.09-36.38,1.83-41.93,19.7,3.86-.38,15.6-9.43,14.31-9.45.63,0,1.51,1.3,2.44,1.13,8.2-1.49,16.59-4.9,25.32-1.05-17.36,3.67-26.8,19.63-20.52,35.55,1.57-3.94,4.06-7.53,4.32-11.99l.12-2.08c.03-.48.93-.56,2.01-.29,6.26-7.75,13.28-15.4,24.25-17.29-1.83,29.64,2.39,53.42,5.85,81.6l8.67,70.74.16,22.34c-9.64-2.29-19.08-3.38-29.21-4.41-.95,6.65-2.42,12.15-6.18,18.52,25.35-.51,49.46,2.43,73.84,8.61l33.68,8.09c14.69,3.53,28.84,4.94,44.53,6.19l-23.73,49.55c-3.9,3.55-26.71,15.26-29.74,6.75,8.95-4.1,25.04-9.68,25.42-20.78.19-5.49-3.72-8.26-8.96-8.23-13.87.06-24.07,9.88-28.77,22.46-1.43,3.07-7.85,3.16-10.73,2.29.59-5.73,9.48-11.18,8.87-19.57-.16-2.2-1.05-4.01-2.95-4.41-7.22-1.49-13.14,25.57-24.9,30.74-6.83-9.54,13.43-32.34.15-31.35-1.86.14-4.03,1.22-4.82,3.48l-6.22,17.9c-1.58,4.53-8.01,7.87-12.36,9.29-2.16.71-2.61-3.33-2.38-4.83,1.47-9.65,7.76-19.48,5.35-22.44-3.47-4.25-4.95,1.83-12.37-1.92-7.6-3.84-15.68-.51-21.86,4.23-10.74,8.23,1.36,12.1-30.93,24.61.82-5.11,24.62-21.12,14.76-27.63-5.21-3.44-11.85,2.37-16.9,3.03-4.46-2.36-10.37-6.8-15.81-1.87-2.1,1.9.91,5.32.06,7.23l-11.48,25.91c-.4.89.16,2.26.43,2.78.8,1.51,7.65,1.91,11.52-6.25,5.55-11.72,7.48-21.95,19.45-23.55,1.11,5.62-17.34,20.01-9.86,27.41,6.61,6.52,19.61-4.15,27.03-7.79,1.15,3.88,2.26,7.32,4.87,8.99,9.83,6.28,17.91-2.36,24.98-9.75-.18,5.68,1.28,11.84,7.13,11.82,6.72-.01,11.74-4.99,17.24-9.29,1.92,2.74,2.36,6.05,4.41,7.42,7.89,5.3,15.22-.69,21.1-7.6,4.74,5.15,12.17,1.28,16.71,1.16,9.42,14.65,25.08,7.33,38.73-.27.52,5.25,2.64,8.63,7.65,8.67,11.05.07,24.58-11.48,31.39-19.06.89-.99.47-3.16.03-3.88-.58-.97-2.82-1.45-4.17-.39-2.42,1.9-21.57,17.5-23.5,13.08-.31-.72-.66-2.51-.11-3.72,8.3-18.31,16.87-35.93,26.26-53.95,6.22-1.4,11.73-.53,18.1-.87-.48-.71-2.17-1.74-3.16-1.69ZM219.21,20.34c-.28,0-.5-.22-.5-.5s.22-.5.5-.5.5.22.5.5-.22.5-.5.5ZM254.5,304.47c-1.59,4.88-10.67,17.97-16.93,15.75-.93-.33-1.95-1.48-2.26-3.29-1.36-7.91,4.01-16.43,12.2-17.42,3.06-.37,8.12,1.52,6.99,4.97ZM347.4,297.39c4.18,3.91-12.26,12.02-15.81,13.99.69-7.33,11.79-17.75,15.81-13.99Z"/>
      <path d="M402.45,100.97l28.17,4.86c-6.02,3.67-12.86,9.13-20.12,7.57-8.07-1.73-16.3-17.69-24.79-8.03l5.71,16.49-7.12,4.57c-.87,1.4,1.16,5.44,2.48,6.46l12.13-.46c2.47-.09,4.14,1.87,6.49,1.55,1.92-.27,2.55-3.41,4.11-3.84l22.02-6.1c10.71-2.97,20.34-8.43,30.55-13.04,3.78,3.65,5.33,8.8,9.15,11.48,2.4.47,5.01-2.8,5.87-4.66l8.49-18.52c6.78-3.1,42.9-16.63,38.03-25.93-.74-1.41-12.7-3.35-21.67.72l-37.02,16.79c-4,1.81-8.89,2.45-13.28,2.65l-39.16,1.75c-3.99.18-7.14,3.25-10.04,5.71Z"/>
      <path d="M117.08,209.67c-1.4-.51-3.43,1.19-4.52.1-.97-.96-1.88-2.04-1.95-3.96l-.3-7.91c-.4-10.35,3.8-31.19-13.54-35.6-10.68-2.72-31.73-1.76-34.43,9.53-1,4.18-.22,8.1,2.89,10.84,4.36,3.83,11.24,3.83,16,.37-3.5-4.17-5.01-10.09-1.65-14.43,2.96-3.82,10.34-3.05,12.4,1.21,2.64,5.47,2.95,11.28,2.19,17.21-10.93.7-28.51,4.47-32.99,14.81-2.77,3.45-2.54,8.46-.65,12.94,1.51,3.59,5.73,6.12,10.47,6.84,10.49,1.61,18.96-4,24.35-13.21,1.31,4.77,2.2,8.59,4.84,10.72,5.74,4.63,14.94,2.95,17.55-1.94,1.07-2.01,1.55-6.72-.65-7.52ZM79.09,211.16c-1.04-.56-2.3-2.14-2.45-3.97l-.52-6.12c4.37-6.57,10.97-9.78,18.73-8.58l-.07,6.4c-2.49,5.89-9.44,15.63-15.7,12.27Z"/>
      <path d="M136.78,220.71l24.02.63c4.88.13,9.98-1.46,12.83-5.44,2.32-3.25,1.83-7.22-.03-10.5-1.3-2.28-5.19-5.98-8.39-5.01-2.96,9.03-13.39,7.75-24.63,7.39l8.27-10.83c4.42-5.79,30.31-26.53,21.37-35.47-13.33,4.22-42.79-6.58-47.83,7.82-2.08,5.93,3.94,13.26,9.38,12.57,4.04-8.8,13.24-7.59,25.14-8.12l-18.85,22.23c-3.94,2.47-6.28,6.79-9.89,10.17-4.39,4.12-7.19,9.68-4.01,15.6,4.19-1.04,8.3-1.17,12.63-1.06Z"/>
      <path d="M140.82,270.45c17.5-7.03,35.56-11.73,54.48-10.45,1.92.13,4.05,1.14,4.57,2.26,1.47,3.18-4.85,7.73-1.55,9.99.73.5,1.96,1.05,3.65.96,6.14-.31,11.85-7.2,9.67-13.62-1.5-4.42-6.72-7.53-11.68-8.14-21.44-2.64-43.77,1.52-63.03,11.06-3.06,1.52-4,4.69-2.51,7.1,1.1,1.78,3.82,1.89,6.42.85Z"/>
      <path d="M174.76,265.27c-1.19-.59-3.04-.18-4.25,1.2-11.25,12.85-27.73,44.85-35.46,61.09-.71,1.5.01,3.53.83,4.4,2.52,2.69,9.81.87,13.86-7.39l26.93-54.89c.83-1.69-.93-3.92-1.92-4.41Z"/>
      <path d="M18.64,213.06c-.07-4.42-.73-8.36-.63-12.14l.43-16.44c7.7-.89,14.9.67,22.74-.69,1.89-.33,1.83-6.11.36-7.48l-23.03-.44-.41-25.92c9.66-.72,18.05,3.19,27.26,5.56,3.86-1.06,5.45-9.2,3.09-12.95l-36.46-.31c-4.68-.04-8.64,1.29-11.97,3.76v1.99c1.87,3.44,2.03,7.61,2.03,11.98l-.03,41.87c0,5.41-1.59,18.98,8.07,18.77,12.93-.29,25.65.9,38.65-.47,3.59-1.93,2.73-10.18-.04-13.32-9.94,3.07-19.21,5.88-30.04,6.23Z"/>
      <path d="M183.72,192.96c-.59,5.26-.22,10.82.89,16.27,1.65,8.08,8.08,12.19,16.12,12.31,8.07.12,14.87-3.13,17.86-11.14.85,8.14.15,15.33-2.58,22.29-2.55,6.49-9.11,10.27-15.61,7.7-2.56-1.01-3.18-3.35-3.68-5.25-.65-2.42,1.83-4.88,2.3-7.48-3.9-3.22-11.4-2.53-14.88,1.37-2.31,2.59-2.22,5.96-1.11,9.1,3.12,8.83,22.57,8.35,30.88,6.55,10.96-2.37,17.81-11.48,18.91-22.56,1.01-10.22.43-20.25.31-30.17-.1-8.25.9-16.8-.5-25.27-.61-3.71-4.98-5.58-7.52-5.69-2.8-.13-9.36.77-8.95,3.64l1.59,11.24.19,17.06c.07,5.88-2.67,22.7-12.67,21.17-2.8-.43-5.02-3.41-5.17-6.92-.18-4.32-1.56-8.8-1.4-13.17.33-8.92,1.28-18.15.04-27.45-.5-3.74-4.99-5.47-7.55-5.56-2.96-.11-8.7.63-8.99,3.95-.31,3.57,1.25,7.18,1.27,10.77l.24,17.25Z"/>
      <path d="M385.46,45.79c7.45-11.71,12.02-18.3,23.27-23.04-10.33-.55-17.87,5.38-24.42,12.83-7.47-6.13-15.75-10.48-25.37-8.38,12.77,3.63,17.35,9.43,26.52,18.58Z"/>
      <path d="M375.09,46.44c-6.16-.81-9.34,3.93-13.64,7.65-5.69-3.89-11.43-7.16-17.56-5.28,8.61,1.77,12.64,7.66,18.38,12.58,3.84-6.58,7.67-10.61,12.82-14.95Z"/>
      <path d="M399.67,44.61c7.11,3.11,10.6,7.66,15.56,12.27,3.88-7.08,8.26-12.52,15.21-16.12-5.3-.09-10.16,2.31-13.92,6.61-4.2,4.8-8.38-6.22-16.86-2.76Z"/>
      <path d="M708.48,176.23c-1.08-10.07-8.65-15.83-18.46-15.37-7.87.37-13.96,4.17-17.42,11.65-1.44-4.67-2.7-7.76-5.21-9.46-3.43-2.33-7.05-2.62-10.98-1.43-4.47,1.36-6.94,8.07-3.44,11.16.91.8,3.7-.76,4.36.49.45.84,1.17,2.03,1.19,3.66l.26,23.91c.1,5.2-.97,10.8.46,16.18.98,3.68,5.5,5.31,8.29,5.42,2.55.1,8.65-1.31,8.36-3.85-.63-5.6-2.14-10.66-1.96-16.64l.43-13.82c.17-5.6,1.26-10.83,4.36-15.55,2.61-3.97,9.08-5.53,12.09-1.3,2.27,3.2,2.54,7.74,2.59,11.58l.33,22.97c.05,3.71-1.23,8.19.68,12.05,3.11,6.28,12.35,5.76,16.69.98-.47-4.23-2.12-7.71-2.18-12.03-.14-10.04.66-20.35-.44-30.61Z"/>
      <path d="M340.4,195.74c-7.36,5.3-9.83,17.29-1.88,22.87,10.93,7.66,25.13,1.54,31.26-10.27,1.49,4.5,2.25,8.79,5.04,10.9,6.12,4.63,15.44,2.72,17.85-2.65.95-2.12,1.19-6.19-1.09-6.89-1.37-.42-3.25.94-4.4.16-1.09-.74-2.1-2.01-2.1-3.93l.04-24.99c0-2.42-1.52-3.89-1.79-5.97-2.07-16.41-27.58-16.45-40.25-10.4-3.68,1.75-6.13,5.12-6.33,9.38-.6,3.28.47,6.91,3.58,9.19,4.55,3.33,11,3.17,15.47-.06-1.76-2.49-3.5-5.03-3.55-8.02-.04-2.45.66-5.45,2.15-6.84,2.37-2.2,5.88-2.54,9.12-1.18,2.47,1.04,4.64,4.72,5.21,7.95.64,3.63.14,7.82.1,12.04-10.72.97-20.1,2.72-28.45,8.73ZM369.46,192.37c.13,6.76-2.54,13.68-8.75,17.98-2.3,1.59-6.1,2.06-7.78.14-3.6-4.12-2.43-10.24,1.44-13.82,4.03-3.72,9.39-4.85,15.09-4.3Z"/>
      <path d="M486.55,187.48c-8.99.83-17.06,3.01-24.41,8.21-7.08,5.01-9.85,16.9-2.35,22.59,10.81,8.19,25.58,2,31.66-9.96,1.56,4.51,2.28,8.78,5.15,10.93,6.11,4.59,15.45,2.73,17.75-2.79.86-2.06,1.2-5.97-1.05-6.78-1.26-.46-3.27.94-4.34.2-1.15-.79-2.05-2.13-2.07-4.02l-.2-18.01c-.06-5.64.19-11.29-2.64-16.9-8.03-15.89-43.13-11.28-45.4.8-.76,4.05-.37,8.37,2.91,11.09,4.05,3.35,12.08,3.88,15.65.13-2.35-3.95-5.01-9.45-1.72-14.02,1.88-2.63,5.05-2.96,8.31-2.46,7.22,1.12,6.94,14.21,6.92,19.45-.96,1.02-2.44,1.38-4.16,1.54ZM484.08,209.07c-2.43,2.26-7.1,4-9.4,1.41-3.93-4.44-2.08-11.57,2.5-14.79,4.11-2.89,8.71-3.79,13.86-3.3.22,6.31-2.02,12.08-6.97,16.68Z"/>
      <path d="M758.61,190.17l-19.29-10.5c-3.14-1.71-5.61-5.85-4.06-9.39,1.97-4.51,7.5-4.4,11.79-3.33,4.69,1.17,4.62,6.51,6.59,10.85,1.3,2.86,8.72.78,9.9-2.44,1.1-3,1.37-8.05-2.78-10.41-10.02-5.7-24.21-5.85-34.06.55-5.18,3.37-6.13,9.17-5.65,14.76,1.44,16.79,27.45,17.49,31.49,28.58.47,4.11-2.67,6.92-6.86,7.7-7.09,1.33-13.44-2.17-15.17-9.63-.37-1.61-.04-3.44-.05-5.31-4.77-1.77-8.17-.07-10.1,4.21-2.2,4.89-.79,10.65,5.32,13.52,9.31,4.37,21.12,4,30.68.14,4.8-1.94,7.17-5.08,9.24-9.47,3.51-7.44.68-15.65-6.99-19.83Z"/>
      <path d="M617.24,160.89c-11.73.13-21.74,6.53-25.15,17.83-1.56,5.18-2.3,10.35-1.64,16.14.3,8.24,3.02,17.01,10.37,22.27,10.07,7.21,24.55,7.03,34.56-.04,7.03-4.97,9.41-12.82,10.2-21.16.79-8.36-.04-17.07-5.13-24.49-5.23-7.62-14.04-10.65-23.22-10.55ZM617.71,217.05c-9.11-.43-11.04-15.16-11.07-21.1-.06-9.56-.03-29.25,11.02-29.64,12.25-.44,11.28,20.68,11.72,28.48-.75,7.74-1.68,22.73-11.67,22.26Z"/>
      <path d="M517.57,163.5c-1.72.79-2.23,4.51-1.31,5.89,1.97,1.14,5.27-.71,7.96.65l.31,18.78c.22,8.76-2.87,25.29,5.7,30.71,6,3.8,16.39,2.93,19.71-2.48,1.21-1.96,1.42-6.44-.81-7.42-2.92.35-8.28,1.71-8.84-2.96-.64-5.36-.68-10.83-.6-16.72l.26-20.08c4.36-1.08,7.92.47,11.64-.87,1.77-.64,2.61-5.12,1.3-6.25l-12.56-.69c-.06-3.95,1.07-7.16,1.5-11-4.36-4.52-12.86-5.04-16.51.65-1.88,2.93-.53,6.79-1.1,10.18-1.83,1.35-4.36.55-6.65,1.61Z"/>
      <path d="M564.33,217.15c.4,3.57,5.13,5.1,7.55,5.27,2.67.19,8.02-.98,8.87-3.67-1.71-10.04-1.77-14.79-1.77-25.81v-24.02c0-4.54-3.04-7.74-7.7-7.99-3.02-.16-7.84.67-9.31,3.41,2.8,11.64,1.33,16.24,2.35,27.48-.73,8.2-.94,16.8.02,25.33Z"/>
      <ellipse cx="570.83" cy="147.26" rx="8.76" ry="8.75"/>
      <path d="M429.56,183.2c5.88,4,12.02,2.84,15.69-2.09,4.03-5.42,2.48-13.38-4.95-17.23-11.84-6.14-32.6-3.09-38.58,11-4.83,7.31-4.54,17.15-3.03,26.11,1.9,11.23,10.32,19.29,21.49,20.88,7.29,1.03,14.67.6,20.86-3.46,5.25-3.44,9.1-9.85,5.57-16.13-2.86,6.75-7.99,9.94-14.36,10.36-8.62.57-15.04-4.58-16.84-13.06-1.56-7.31-1.16-14.58-.17-22.55.39-1.92,1.94-4.06,2.98-6.2,2.15-4.42,8.44-6.3,12.03-2.59,2.79,2.88,1.44,7.8,1.08,11.83-.52.41-2.55,2.6-1.78,3.12Z"/>
      <path d="M611.06,318.96c2.57-9.3,9.18-16.44,10.77-25.47.59-3.35-5.53-1.72-7.28-.29-9.69,7.92-16.72,18.06-27.41,25.06l10.38-25.56c-2.45-3.46-7.14-2.53-9.63.67-5.43,6.97,3.01,10.15-28.66,26.38-3.76-1.25-7.94-3.22-12.01-3.64l21.29-16.21c1.79-1.36,4.45-7.15,1.28-7.77-9.95-1.94-20.35.11-30.57-.63-2.51-.18-3.85,1.76-4.5,3.12-.56,1.19-1.04,4.49.85,4.54l21.22.58-15.6,12.19c-3.09-11.21-7.81,1.91-18.24,7.37-1.38.72-2.84,1.61-3.81.8-5.45-4.59,7.18-23.58,4.11-27.03-3.93-4.43-4.33,1.9-12.89-2.18-6.46-3.08-14.1-.89-19.61,3.1-5.84,4.24-8.52,10.17-11.5,16.55l-9.78,6.27c-5.81,3.72-33.02,12.33-37.32-5.6-1.11-4.61-.24-9.15,3.13-12.71,9.61-10.16,22.18-3.63,37.16-8.93,1.52-.54,2.59-2.05,2.01-3.51-1.41-3.54-12.45.16-19.32-7.09-2.13-2.25-2.81-5.49-2.42-8.23,1.36-9.32,28.9-15.21,34.42-7.42,1.75,2.48.87,5.55,1.91,8.08,1.15,2.81,5.73,1.76,8.05.53,2.22-1.18,4.13-3.79,3.37-7.28-4.25-19.61-36.68-15.87-52.58-6.52-4.03,2.37-7.3,6.25-8.04,10.66-1.04,6.15,2.97,10.25,7.05,14.78-16.77,3.2-31.47,13.28-27.31,30.37,5.92,24.37,40.96,17.98,58.74,9.99,4.02,6.51,10.98,8.11,17.23,4.55,4.47-2.55,7.65-6.26,11.05-9.69.61,1.98.51,3.73.92,5.55,1.1,4.98,5.57,7.09,10.27,5.46,5.16-1.78,9.1-5.02,13.76-8.81,2.43,6.99,11.19,1.93,16.75,4.28-7.23,4.82-25.4,12.35-22.17,21.92.93,2.74,3.47,4.66,6.79,5.58,13.31,3.71,29.15-13.51,29.04-26.65,5.14-2.39,8.68-5.87,13.37-7.31-.19,4.26-3.01,7.59-.45,10.19,2.79,2.83,8.03.83,11.26-.73,6.56-3.18,10.06-8.63,16.42-13.17-2.14,6.56-4.99,12.05-8.32,17.54-2.25,3.72-17.87,21.66-9.96,27.57,9.5,7.1,16.37-18.57,20.19-24.54,6.19-9.69,32.11-15.06,28.9-23.07-2.62-6.53-16.35,4.96-22.32,6.35ZM507.95,303.65c-1.16,6.29-12.34,20.03-17.37,16.39-4.47-3.23-2.21-16.83,8.89-20.45,2.54-.83,9.12.56,8.48,4.06ZM540.87,346.32c-1.98.8-3.9-.5-4.58-1.21-3.72-3.92,11.53-11.35,15.19-12.79.02,6.39-4.68,11.61-10.61,14.01Z"/>
    </g>
  </g>
</svg>